<?xml version="1.0" encoding="utf-8"?>
<!-- Generator: Adobe Illustrator 22.1.0, SVG Export Plug-In . SVG Version: 6.00 Build 0)  -->
<svg version="1.1" id="圖層_1" xmlns="http://www.w3.org/2000/svg" xmlns:xlink="http://www.w3.org/1999/xlink" x="0px" y="0px"
	 width="17px" height="17px" viewBox="0 0 17 17" style="enable-background:new 0 0 17 17;" xml:space="preserve">
<g id="Page-1">
	<g id="關於台灣竹會-宗旨" transform="translate(-926.000000, -4615.000000)">
		<g id="Group-5" transform="translate(926.000000, 4616.000000)">
			<path d="M14.3,12.6H2.7c-0.8,0-1.6-0.7-1.6-1.6V4c0-0.8,0.7-1.6,1.6-1.6h11.6c0.8,0,1.6,0.7,1.6,1.6v7.1
				C15.9,11.9,15.2,12.6,14.3,12.6z M2.7,2.9C2.1,2.9,1.6,3.4,1.6,4v7.1c0,0.6,0.5,1.1,1.1,1.1h11.6c0.6,0,1.1-0.5,1.1-1.1V4
				c0-0.6-0.5-1.1-1.1-1.1C14.4,2.9,2.7,2.9,2.7,2.9z"/>
			<path d="M8.5,9.4L3.2,4.8c-0.1-0.1-0.1-0.2,0-0.3c0.1-0.1,0.2-0.1,0.3,0l5.1,4.4l5.1-4.4c0.1-0.1,0.3-0.1,0.3,0s0.1,0.3,0,0.3
				L8.5,9.4z"/>
		</g>
	</g>
</g>
</svg>
