<?xml version="1.0" encoding="utf-8"?>
<!-- Generator: Adobe Illustrator 22.1.0, SVG Export Plug-In . SVG Version: 6.00 Build 0)  -->
<svg version="1.1" id="圖層_1" xmlns="http://www.w3.org/2000/svg" xmlns:xlink="http://www.w3.org/1999/xlink" x="0px" y="0px"
	 width="17px" height="17px" viewBox="0 0 17 17" style="enable-background:new 0 0 17 17;" xml:space="preserve">
<g id="Page-1">
	<g id="關於台灣竹會-宗旨" transform="translate(-925.000000, -4512.000000)">
		<g id="Group-5" transform="translate(925.000000, 4512.000000)">
			<path id="Fill-1" d="M7.4,5.6C7.4,4.7,8.2,4,9,4c0.8,0,1.6,0.7,1.6,1.6S9.8,7.1,9,7.1C8.2,7.1,7.4,6.4,7.4,5.6 M10.9,5.6
				c0-1.1-0.8-2-1.9-2s-2,0.8-2,2s0.8,1.9,2,1.9S10.9,6.7,10.9,5.6"/>
			<path id="Fill-3" d="M1.8,14.9l3.9-5.3H7l2,4.1c0.1,0.1,0.1,0.1,0.2,0.1s0.1-0.1,0.2-0.1l1.9-4.1h1.2l3.8,5.3H1.8z M6.4,3.6
				C7,2.7,7.9,2.1,9,2.1c0.1,0,0.1,0,0.2,0s0.1,0,0.2,0c1.1,0.1,2,0.7,2.6,1.6c0.6,1,0.7,2.1,0.2,3.1l-3,6.3l-3-6.2
				C5.7,5.8,5.8,4.6,6.4,3.6L6.4,3.6z M16.7,15l-4-5.7c-0.1-0.1-0.1-0.1-0.2-0.1h-1l1-2.2C13,5.8,13,4.5,12.3,3.4
				c-0.7-1-1.7-1.7-2.9-1.8c-0.1,0-0.3,0-0.4,0C7.7,1.7,6.7,2.4,6,3.4C5.4,4.5,5.3,5.8,5.8,7l1,2.2H5.7c-0.1,0-0.1,0-0.2,0.1L1.3,15
				c-0.1,0.1-0.1,0.1-0.1,0.2c0.1,0.1,0.1,0.1,0.2,0.1h15.2c0.1,0,0.1-0.1,0.2-0.1C16.8,15.1,16.8,15.1,16.7,15L16.7,15z"/>
		</g>
	</g>
</g>
</svg>
