<?xml version="1.0" encoding="utf-8"?>
<!-- Generator: Adobe Illustrator 22.1.0, SVG Export Plug-In . SVG Version: 6.00 Build 0)  -->
<svg version="1.1" id="圖層_1" xmlns="http://www.w3.org/2000/svg" xmlns:xlink="http://www.w3.org/1999/xlink" x="0px" y="0px"
	 width="17px" height="17px" viewBox="0 0 17 17" style="enable-background:new 0 0 17 17;" xml:space="preserve">
<g id="Page-1">
	<g id="關於台灣竹會-宗旨" transform="translate(-925.000000, -4560.000000)">
		<g id="Group-7" transform="translate(926.000000, 4561.000000)">
			<path d="M10.7,15c-0.4,0-0.8-0.1-1.3-0.3c-2.1-0.8-3.9-2.1-5.5-3.6C2.5,9.6,1.2,7.8,0.4,5.7C0.1,4.9,0,4,0.4,3.3
				c0.3-0.8,1-1.3,2-1.6c0.5-0.1,0.8-0.1,1.3,0C4.5,2,6.2,4.4,6.3,5.4c0.1,1-0.7,1.4-1,1.6C5,7.3,4.5,7.1,4.3,6.8
				C4.2,6.7,4.2,6.5,4.3,6.5c0.1-0.1,0.3-0.1,0.3,0.1c0.1,0.1,0.3,0.2,0.4,0.1c0.3-0.2,0.8-0.5,0.8-1.2c-0.1-0.8-1.7-3-2.4-3.3
				C3.1,2,2.8,2,2.5,2.1C1.7,2.4,1.1,2.8,0.8,3.5c-0.3,0.6-0.3,1.3,0,2.1c0.8,2,2,3.8,3.4,5.3c1.5,1.5,3.2,2.6,5.3,3.4
				c0.7,0.3,1.5,0.3,2.1,0c0.6-0.3,1.1-0.8,1.4-1.7c0.1-0.3,0.1-0.7,0-1c-0.3-0.7-2.5-2.3-3.2-2.4c-0.7-0.1-1,0.5-1.2,0.8
				c-0.1,0.1-0.1,0.3,0.1,0.5c0.1,0.1,0.1,0.2,0.1,0.3C8.6,11,8.5,11,8.4,10.9c-0.3-0.3-0.5-0.7-0.2-1c0.2-0.3,0.7-1,1.6-1
				c1,0.1,3.3,1.8,3.6,2.7c0.1,0.4,0.1,0.8,0,1.3c-0.3,0.9-0.8,1.6-1.6,2C11.5,14.9,11.2,15,10.7,15z"/>
			<path d="M14.7,6.6c-0.1,0-0.3-0.1-0.3-0.3c0-1.5-0.6-2.9-1.6-4s-2.5-1.6-4-1.6c-0.1,0-0.3-0.1-0.3-0.3s0.1-0.3,0.3-0.3
				c1.6,0,3.2,0.6,4.3,1.8c1.2,1.2,1.8,2.7,1.8,4.3C14.9,6.5,14.8,6.6,14.7,6.6z"/>
			<path d="M11.4,6.6c-0.1,0-0.3-0.1-0.3-0.3c0-1.3-1-2.3-2.3-2.3C8.7,4,8.6,3.9,8.6,3.7c0-0.1,0.1-0.3,0.3-0.3l0,0
				c1.6,0,2.9,1.3,2.9,2.9C11.7,6.5,11.6,6.6,11.4,6.6z"/>
		</g>
	</g>
</g>
</svg>
